<svg version="1.1"
     xmlns="http://www.w3.org/2000/svg"
     x="0px"
     y="0px"
     viewBox="0 0 188 35.9"
     xml:space="preserve">
     <g opacity="0.25">
    <g
        class="logo-terra" fill="#000"> <path
        d="M67.1,17.2h-5.6v-4.5h16.3v4.5h-5.6v14.1h-5.2V17.2z M80.1,12.7h15v4.4h-9.9v2.8h8.9V24h-8.9v3h10v4.4H80.1V12.7z M97.9,12.7h8.8c2.8,0,4.8,0.7,6.1,2c1.1,1.1,1.7,2.5,1.7,4.4c0,2.8-1.5,4.7-3.8,5.7l4.4,6.5h-6l-3.8-5.6H103v5.6h-5.2V12.7z M106.4,21.6c1.8,0,2.8-0.9,2.8-2.3c0-1.5-1.1-2.2-2.8-2.2H103v4.5H106.4z M117,12.7h8.8c2.8,0,4.8,0.7,6.1,2c1.1,1.1,1.7,2.5,1.7,4.4c0,2.8-1.5,4.7-3.8,5.7l4.4,6.5h-6l-3.8-5.6h-2.3 v5.6H117V12.7z M125.6,21.6c1.8,0,2.8-0.9,2.8-2.3c0-1.5-1.1-2.2-2.8-2.2h-3.4v4.5H125.6z M142.3,12.6h5l7.9,18.8h-5.5l-1.4-3.3h-7.2l-1.3,3.3h-5.4L142.3,12.6z M146.8,24l-2.1-5.3l-2.1,5.3H146.8z"></path>
</g>
    <g class="logo-lab" fill="#be1e2d">
        <path
            d="M156.4,2.3h3v8.1h5.2V13h-8.1V2.3z M169.5,2.2h2.9L177,13h-3.2l-0.8-1.9h-4.1l-0.8,1.9H165L169.5,2.2z M172.1,8.8l-1.2-3l-1.2,3H172.1z M178,2.3h5.5c1.3,0,2.3,0.3,2.9,1c0.4,0.4,0.7,1,0.7,1.8c0,1.2-0.7,2-1.7,2.4c1.3,0.4,2.1,1.2,2.1,2.6 c0,1.8-1.5,2.9-4,2.9H178V2.3z M182.7,6.5c0.9,0,1.4-0.3,1.4-1c0-0.6-0.5-0.9-1.3-0.9h-1.9v1.9H182.7z M183.2,10.6 c0.9,0,1.4-0.4,1.4-1c0-0.6-0.5-1-1.5-1h-2.3v2H183.2z"></path>
        <path d="M23.6,16L11.8,4.2L0,16l11.8,11.8l4.3,4.3c4.2,4.2,10.9,4.2,15,0c0,0,0,0,0,0l4.3-4.3L23.6,16z"></path>
        <rect x="28.6"
              y="6.2"
              transform="matrix(0.7071 -0.7071 0.7071 0.7071 0.5708 30.3991)"
              width="16.7"
              height="16.7"></rect>
              </g>
              </g>
              </svg>